<?xml version="1.0" encoding="UTF-8"?>
<svg width="988px" height="360px" viewBox="0 0 988 360" version="1.1" xmlns="http://www.w3.org/2000/svg" xmlns:xlink="http://www.w3.org/1999/xlink">
    <title>havoc-button</title>
    <g id="Page-1" stroke="none" stroke-width="1" fill="none" fill-rule="evenodd">
        <g id="havoc-button" transform="translate(5.000000, 5.000000)">
            <rect id="Rectangle" stroke="#A6A6A6" stroke-width="8.97435897" fill="#000000" fill-rule="nonzero" x="0" y="0" width="978" height="350" rx="58.3333333"></rect>
            <path d="M375.556408,190.768984 L375.996017,190.012944 L376,190 C370.442127,209.882785 342.117269,226.935128 301.957188,236.684325 L301.865561,236.868277 C295.528106,249.938566 285.622175,258.90937 275.890878,260.556214 C260.136461,263.258781 242.889559,264.823304 224.786493,264.99348 L224.304622,264.997158 L224.304989,265 L224.151751,264.998734 L223.998866,265 L223.998751,264.997203 L223.517362,264.99348 C205.414296,264.823304 188.167394,263.258781 172.412977,260.556214 C162.68168,258.90937 152.775749,249.938566 146.438294,236.868277 L146.387146,236.768746 C106.672888,227.185914 78.4624101,210.47283 72.2736169,190.932873 L72,190.014693 L72.4387498,190.768381 C87.6807812,216.06446 149.748008,235.001014 223.997761,235.001014 C298.246924,235.001014 360.313754,216.064761 375.556408,190.768984 Z M312.777699,137 C342.150483,145.275925 364.15471,157.546211 374,171.86971 C359.483121,200.496915 297.840831,222 224,222 C150.157054,222 88.5133439,200.495679 74,171.867202 C83.8487741,157.544272 105.851845,145.275271 135.222309,137 C133.040099,140.831685 131.873421,144.868332 131.873421,149.037749 C131.873421,173.828697 173.119897,193.92573 224,193.92573 C274.880111,193.92573 316.126587,173.828697 316.126587,149.037749 C316.126587,145.071198 315.070677,141.22481 313.088343,137.561678 L312.777699,137 Z M224.653684,85 C262.562605,85.1083574 294.057797,110.157305 300.585478,143.161902 L300.775625,144.164459 L300.769193,144.166249 C300.891577,144.852298 300.965918,145.544186 300.990759,146.241281 L300.997751,146.502935 L301,146.815259 C300.938134,164.964011 267.325351,179.702599 225.613762,179.995556 L224.346153,180 L224.345847,179.998786 L223.386238,179.995556 C181.674649,179.702599 148.061866,164.964011 148,146.815259 L148.002249,146.502935 C148.016248,145.717249 148.093125,144.938054 148.230807,144.166249 L148.224375,144.164459 C154.306607,110.6658 186.054647,85.1093154 224.345989,85 L224.653684,85 Z M160,141 C157.238576,141 155,143.238576 155,146 C155,148.761424 157.238576,151 160,151 C162.761424,151 165,148.761424 165,146 C165,143.238576 162.761424,141 160,141 Z M198.462278,100.76198 C197.216665,98.2850131 194.205099,97.2899223 191.735757,98.5393821 C185.116229,101.888791 179.282579,106.19919 174.256319,111.458879 C169.333831,116.609978 165.127535,122.29776 161.643444,128.514177 C160.288075,130.932467 161.143708,133.995014 163.554554,135.354569 C165.965399,136.714123 169.018519,135.855848 170.373888,133.437558 C173.44493,127.958113 177.147155,122.95194 181.486576,118.410988 C185.637512,114.067274 190.438795,110.494143 195.910672,107.680581 L196.337303,107.462189 C198.740018,106.185305 199.692514,103.208366 198.462278,100.76198 Z" id="Shape" fill="#FFFFFF" fill-rule="nonzero"></path>
            <text id="Havoc" font-family="-apple-system, BlinkMacSystemFont, system-ui, sans-serif" font-size="161.538462" font-weight="500" letter-spacing="-1.135914" fill="#FFFFFF">
                <tspan x="434.844037" y="278.641026">Havoc </tspan>
            </text>
            <text id="Get-it-on" font-family="-apple-system, BlinkMacSystemFont, system-ui, sans-serif" font-size="88.769231" font-weight="500" letter-spacing="1.388049" fill="#FFFFFF">
                <tspan x="437.844037" y="130.871795">Get it on </tspan>
            </text>
        </g>
    </g>
</svg>