<?xml version="1.0" encoding="UTF-8"?>
<svg width="2694px" height="2694px" viewBox="0 0 2694 2694" version="1.1" xmlns="http://www.w3.org/2000/svg" xmlns:xlink="http://www.w3.org/1999/xlink">
    <title>Rectangle</title>
    <defs>
        <linearGradient x1="50%" y1="0%" x2="50%" y2="100%" id="linearGradient-1">
            <stop stop-color="#FEFEFF" offset="0%"></stop>
            <stop stop-color="#ACABAB" offset="100%"></stop>
        </linearGradient>
        <linearGradient x1="50%" y1="0%" x2="50%" y2="100%" id="linearGradient-2">
            <stop stop-color="#FEFFFF" offset="0%"></stop>
            <stop stop-color="#E5E5E5" offset="100%"></stop>
        </linearGradient>
        <filter x="-9.4%" y="-9.4%" width="118.9%" height="118.9%" filterUnits="objectBoundingBox" id="filter-3">
            <feGaussianBlur stdDeviation="50" in="SourceGraphic"></feGaussianBlur>
        </filter>
    </defs>
    <g id="Page-1" stroke="none" stroke-width="1" fill="none" fill-rule="evenodd">
        <path d="M772.876475,-3.12251346e-14 L1921.12353,3.12251346e-14 C2189.86951,-1.81427024e-14 2287.3233,27.9820372 2385.57282,80.5264535 C2483.82233,133.07087 2560.92913,210.177665 2613.47355,308.427181 C2666.01796,406.676698 2694,504.130487 2694,772.876475 L2694,1921.12353 C2694,2189.86951 2666.01796,2287.3233 2613.47355,2385.57282 C2560.92913,2483.82233 2483.82233,2560.92913 2385.57282,2613.47355 C2287.3233,2666.01796 2189.86951,2694 1921.12353,2694 L772.876475,2694 C504.130487,2694 406.676698,2666.01796 308.427181,2613.47355 C210.177665,2560.92913 133.07087,2483.82233 80.5264535,2385.57282 C27.9820372,2287.3233 1.2095135e-14,2189.86951 -2.08167564e-14,1921.12353 L2.08167564e-14,772.876475 C-1.2095135e-14,504.130487 27.9820372,406.676698 80.5264535,308.427181 C133.07087,210.177665 210.177665,133.07087 308.427181,80.5264535 C406.676698,27.9820372 504.130487,1.81427024e-14 772.876475,-3.12251346e-14 Z" id="Rectangle" fill="url(#linearGradient-1)"></path>
        <path d="M746.028342,173 L1946.97166,173 C2146.2261,173 2218.48057,193.746524 2291.32501,232.704159 C2364.16946,271.661794 2421.33821,328.830541 2460.29584,401.674985 C2499.25348,474.51943 2520,546.773904 2520,746.028342 L2520,1946.97166 C2520,2146.2261 2499.25348,2218.48057 2460.29584,2291.32501 C2421.33821,2364.16946 2364.16946,2421.33821 2291.32501,2460.29584 C2218.48057,2499.25348 2146.2261,2520 1946.97166,2520 L746.028342,2520 C546.773904,2520 474.51943,2499.25348 401.674985,2460.29584 C328.830541,2421.33821 271.661794,2364.16946 232.704159,2291.32501 C193.746524,2218.48057 173,2146.2261 173,1946.97166 L173,746.028342 C173,546.773904 193.746524,474.51943 232.704159,401.674985 C271.661794,328.830541 328.830541,271.661794 401.674985,232.704159 C474.51943,193.746524 546.773904,173 746.028342,173 Z" id="Rectangle" fill="url(#linearGradient-2)"></path>
        <path d="M2095.66152,671.716468 C2157.95015,734.005093 2157.95015,834.994907 2095.66152,897.283531 L1572.256,1420.689 L2094.66152,1943.09446 C2156.95015,2005.38309 2156.95015,2106.3729 2094.66152,2168.66153 C2032.3729,2230.95015 1931.38308,2230.95015 1869.09446,2168.66153 L1346.689,1646.256 L824.283531,2168.66153 C761.994907,2230.95015 661.005093,2230.95015 598.716468,2168.66153 C536.427844,2106.3729 536.427844,2005.38309 598.716468,1943.09446 L1121.122,1420.689 L597.716468,897.283531 C535.427844,834.994907 535.427844,734.005093 597.716468,671.716468 C660.005093,609.427844 760.994907,609.427844 823.283531,671.716468 L1346.689,1195.122 L1870.09446,671.716468 C1932.38308,609.427844 2033.3729,609.427844 2095.66152,671.716468 Z" id="path-1" fill="#000000" fill-rule="nonzero" opacity="0.132370722" filter="url(#filter-3)"></path>
    </g>
</svg>