<?xml version="1.0" encoding="UTF-8"?>
<svg width="988px" height="360px" viewBox="0 0 988 360" version="1.1" xmlns="http://www.w3.org/2000/svg" xmlns:xlink="http://www.w3.org/1999/xlink">
    <title>chariz-button</title>
    <g id="Page-1" stroke="none" stroke-width="1" fill="none" fill-rule="evenodd">
        <g id="chariz-button" transform="translate(5.000000, 5.000000)">
            <rect id="Rectangle" stroke="#A6A6A6" stroke-width="8.97435897" fill="#000000" fill-rule="nonzero" x="0" y="0" width="978" height="350" rx="58.3333333"></rect>
            <path d="M276.246,177.719231 C281.345073,188.823888 284.58832,200.689994 285.84655,212.844872 C287.03989,224.960256 285.909358,237.165385 282.571596,248.132051 C279.632823,257.918157 274.858206,267.055182 268.502752,275.055128 C263.525815,281.31525 257.554354,286.714947 250.826972,291.038462 C245.917006,294.241044 240.615655,296.798773 235.053358,298.648718 C232.745521,299.440291 230.386229,300.072965 227.992018,300.542308 C225.34846,301.0656 222.750502,299.454764 222.043266,296.853846 C221.808828,296.023307 221.784164,295.147551 221.971486,294.305128 C223.622672,287.326498 224.779998,280.240133 225.434862,273.098718 C225.911833,267.742382 225.905827,262.353977 225.416917,256.998718 C224.939703,251.841847 223.809083,246.76656 222.052239,241.894872 C220.337649,237.380803 218.189139,233.043811 215.636917,228.944872 C212.879825,224.421836 209.906489,220.034273 206.727248,215.797436 C202.905317,210.725546 198.947009,205.75792 194.856661,200.9 C194.373782,200.375896 193.906996,199.837184 193.456954,199.284615 C192.849821,198.550128 192.233664,197.82315 191.608624,197.103846 L190.531927,195.847436 C189.27028,194.378413 188.026009,192.894549 186.799376,191.396154 C183.488532,187.465385 180.159743,182.798718 176.66945,177.207692 C170.083651,166.465385 165.301321,154.735897 162.83389,143.257692 C160.231872,131.39359 159.998587,118.614103 162.169927,107.279487 C164.039273,97.055724 167.948249,87.3132825 173.66367,78.6333333 C178.107867,71.8806812 183.644769,65.9149797 190.047413,60.9807692 C194.750512,57.3525638 199.908751,54.3565371 205.390349,52.0692308 C207.818093,51.0538812 210.312248,50.2053309 212.85545,49.5294872 C214.507298,49.0931778 216.267875,49.5106872 217.548055,50.6423077 C218.834319,51.7769141 219.481591,53.4709094 219.279743,55.174359 C218.983651,57.6602564 218.72345,60.1461538 218.517083,62.6410256 C218.185101,66.8410256 217.871064,71.8846154 218.023596,77.125641 C218.185101,83.0397436 218.768312,88.3884615 219.773229,93.0461538 C220.757159,97.9799448 222.424148,102.752398 224.726037,107.225641 C226.655119,110.994872 228.978991,114.584615 232.262917,118.946154 C235.06233,122.64359 238.301394,126.511538 242.356954,131.025641 C242.904275,131.716667 243.514404,132.326923 244.052752,132.874359 C244.465486,133.296154 244.833358,133.673077 245.353761,134.25641 C246.053615,135.126923 246.906,135.988462 247.731468,136.832051 L248.485156,137.594872 C248.996587,138.10641 249.516991,138.671795 250.136092,139.389744 L252.657358,142.171795 C253.752,143.302564 255.869505,145.779487 257.960092,148.364103 C265.286684,157.325816 271.432255,167.191556 276.246,177.719231 L276.246,177.719231 Z M184.475505,244.829487 C186.889101,249.855128 188.441339,255.239744 188.961743,260.4 C189.500092,265.694872 188.961743,271.258974 187.436422,276.051282 C186.047808,280.420892 183.816472,284.475945 180.868569,287.987179 C178.516093,290.785909 175.721637,293.180794 172.595945,295.076923 C170.890713,296.126574 169.095047,297.021592 167.230404,297.751282 C165.460045,298.436058 163.461649,298.157785 161.945615,297.015385 C160.471376,295.89979 159.744149,294.053631 160.061394,292.232051 C160.393376,290.365385 160.626661,288.687179 160.77022,287.098718 C160.98556,284.424359 160.98556,282.073077 160.761248,280 C160.535835,277.696257 160.004785,275.432783 159.182092,273.269231 C158.380909,271.268014 157.379895,269.352759 156.194257,267.552564 C154.908428,265.539505 153.521914,263.592588 152.04,261.719231 C150.26345,259.475641 148.424092,257.285897 146.530899,255.15 L146.441174,255.060256 C146.238525,254.852463 146.043976,254.636918 145.857963,254.414103 C145.568566,254.07614 145.272414,253.744022 144.969688,253.417949 L144.503119,252.90641 C143.890343,252.226004 143.286149,251.537916 142.690679,250.842308 C140.986912,248.879626 139.424757,246.798315 138.016018,244.614103 C135.002941,240.001112 132.814011,234.899621 131.546862,229.537179 C130.335043,224.291624 130.23114,218.850836 131.241798,213.562821 C133.289317,203.071732 140.248254,194.201816 149.949413,189.717949 C151.647252,188.954152 153.616373,189.102796 155.180367,190.112821 C156.732606,191.126923 157.602936,192.85 157.468349,194.635897 C157.369651,195.991026 157.244037,198.046154 157.306844,200.217949 C157.378624,202.829487 157.647798,205.198718 158.114367,207.262821 C158.607853,209.560256 159.388459,211.660256 160.429266,213.553846 C161.568771,215.653846 162.851835,217.367949 163.973394,218.785897 C165.408991,220.571795 166.934312,222.285897 168.52244,223.946154 L168.70189,224.14359 C168.926202,224.412821 169.186404,224.673077 169.446606,224.933333 L169.904202,225.382051 C170.307963,225.839744 170.738642,226.279487 171.187266,226.701282 L171.519248,227.024359 C171.761505,227.257692 171.985817,227.491026 172.299853,227.832051 L173.52011,229.10641 C174.031541,229.608974 175.090294,230.784615 175.951651,231.798718 C179.361193,235.747436 182.223413,240.135897 184.475505,244.829487 L184.475505,244.829487 Z" id="Shape" fill="#FFFFFF"></path>
            <text id="Chariz" font-family="-apple-system, BlinkMacSystemFont, system-ui, sans-serif" font-size="161.538462" font-weight="500" letter-spacing="-1.135914" fill="#FFFFFF">
                <tspan x="391.844037" y="279.641026">Chariz </tspan>
            </text>
            <text id="Get-it-on" font-family="-apple-system, BlinkMacSystemFont, system-ui, sans-serif" font-size="88.769231" font-weight="500" letter-spacing="1.388049" fill="#FFFFFF">
                <tspan x="394.844037" y="131.871795">Get it on </tspan>
            </text>
        </g>
    </g>
</svg>